<svg width="40" height="42" viewBox="0 0 40 42" fill="none" xmlns="http://www.w3.org/2000/svg">
<path d="M36 0H4C2.93913 0 1.92172 0.442499 1.17157 1.23015C0.421427 2.0178 0 3.08609 0 4.2V42L8 33.6H36C37.0609 33.6 38.0783 33.1575 38.8284 32.3698C39.5786 31.5822 40 30.5139 40 29.4V4.2C40 3.08609 39.5786 2.0178 38.8284 1.23015C38.0783 0.442499 37.0609 0 36 0ZM8 14.7H32V18.9H8V14.7ZM24 25.2H8V21H24V25.2ZM32 12.6H8V8.4H32" fill="url(#paint0_linear)"/>
<defs>
<linearGradient id="paint0_linear" x1="0" y1="0" x2="40" y2="42" gradientUnits="userSpaceOnUse">
<stop stop-color="#FF6E1D"/>
<stop offset="1" stop-color="#FF00A8"/>
</linearGradient>
</defs>
</svg>
