<svg width="38" height="49" viewBox="0 0 38 49" fill="none" xmlns="http://www.w3.org/2000/svg">
<path d="M33.6966 21.8921C33.0825 21.0912 32.3617 20.397 31.6675 19.7029C29.9322 18.101 27.9299 16.953 26.2479 15.2711C22.35 11.3732 21.5491 4.93908 23.9786 0C21.5491 0.614047 19.3065 2.00233 17.4377 3.5241C10.6564 9.07722 7.98667 18.8753 11.1904 27.2851C11.2972 27.552 11.404 27.819 11.404 28.1661C11.404 28.7534 11.0035 29.2874 10.4696 29.501C9.88221 29.7679 9.24146 29.6078 8.7609 29.1806C8.60072 29.0471 8.49393 28.9136 8.36044 28.7267C5.42369 24.909 4.94313 19.4359 6.94546 15.0575C2.56704 18.6884 0.19094 24.8289 0.564708 30.6223C0.671499 31.9572 0.831685 33.292 1.28555 34.6269C1.65931 36.2288 2.35345 37.8307 3.20778 39.2456C5.98434 43.8643 10.87 47.1748 16.1295 47.8423C21.736 48.5631 27.743 47.5219 32.0413 43.5707C36.8469 39.1388 38.5822 32.0372 36.046 25.9502L35.6989 25.256C35.1649 24.0279 34.4441 22.9333 33.5631 21.9188L33.6966 21.8921Z" fill="url(#paint0_linear)"/>
<path d="M5.74931 16.8889C4.61372 20.9946 5.35033 25.6286 7.95875 29.0246C8.09786 29.2189 8.23176 29.3893 8.43469 29.5596C9.02814 30.0837 9.86846 30.318 10.666 29.9609C11.3654 29.6762 11.904 28.9736 11.904 28.1661C11.904 27.7221 11.7666 27.379 11.662 27.1177L11.6562 27.1032C8.53127 18.8952 11.1409 9.32736 17.7536 3.9116C19.3215 2.63495 21.136 1.47184 23.083 0.7916C21.1341 5.74597 22.0949 11.8252 25.8943 15.6246C26.7629 16.4932 27.7097 17.2194 28.6372 17.9167C28.7147 17.9749 28.7919 18.0329 28.869 18.0907C29.7201 18.7295 30.5482 19.351 31.3211 20.0636C31.3963 20.1388 31.4714 20.2135 31.5462 20.288C31.9718 20.712 32.389 21.1275 32.7776 21.566L32.6216 21.5972L33.1856 22.2467C34.0377 23.2279 34.7293 24.28 35.2404 25.4554L35.2457 25.4677L35.2517 25.4796L35.591 26.1582C38.0329 32.0383 36.3571 38.9099 31.7029 43.2025C27.5482 47.0218 21.7082 48.0554 16.1932 47.3464L16.1924 47.3463C11.0933 46.6992 6.3384 43.4828 3.63631 38.988L3.63581 38.9872C2.80427 37.61 2.13256 36.0566 1.77247 34.5133L1.76687 34.4893L1.75893 34.466C1.32611 33.193 1.16941 31.9098 1.06342 30.5862C0.746046 25.6503 2.47899 20.4656 5.74931 16.8889Z" stroke="black" stroke-opacity="0.2"/>
<defs>
<linearGradient id="paint0_linear" x1="1" y1="-3.75068e-07" x2="20.5218" y2="48.943" gradientUnits="userSpaceOnUse">
<stop stop-color="#FF0054"/>
<stop offset="1" stop-color="#F9598E"/>
</linearGradient>
</defs>
</svg>
