<?xml version="1.0" encoding="UTF-8" standalone="no"?>
<svg
   xmlns:dc="http://purl.org/dc/elements/1.1/"
   xmlns:cc="http://creativecommons.org/ns#"
   xmlns:rdf="http://www.w3.org/1999/02/22-rdf-syntax-ns#"
   xmlns:svg="http://www.w3.org/2000/svg"
   xmlns="http://www.w3.org/2000/svg"
   xmlns:sodipodi="http://sodipodi.sourceforge.net/DTD/sodipodi-0.dtd"
   xmlns:inkscape="http://www.inkscape.org/namespaces/inkscape"
   width="30"
   height="42"
   viewBox="0 0 30 42"
   fill="none"
   version="1.1"
   id="svg6"
   sodipodi:docname="mainIcon.svg"
   inkscape:version="0.92.4 5da689c313, 2019-01-14">
  <metadata
     id="metadata12">
    <rdf:RDF>
      <cc:Work
         rdf:about="">
        <dc:format>image/svg+xml</dc:format>
        <dc:type
           rdf:resource="http://purl.org/dc/dcmitype/StillImage" />
      </cc:Work>
    </rdf:RDF>
  </metadata>
  <defs
     id="defs10" />
  <sodipodi:namedview
     pagecolor="#ffffff"
     bordercolor="#666666"
     borderopacity="1"
     objecttolerance="10"
     gridtolerance="10"
     guidetolerance="10"
     inkscape:pageopacity="0"
     inkscape:pageshadow="2"
     inkscape:window-width="1920"
     inkscape:window-height="1052"
     id="namedview8"
     showgrid="false"
     inkscape:zoom="7.9465333"
     inkscape:cx="10.989927"
     inkscape:cy="28.207951"
     inkscape:window-x="0"
     inkscape:window-y="753"
     inkscape:window-maximized="1"
     inkscape:current-layer="svg6" />
  <path
     d="M27.1274 19.1339C26.6253 18.4339 26.0357 17.8272 25.4681 17.2205C24.0488 15.8205 22.4113 14.8171 21.0357 13.347C17.848 9.94028 17.1929 4.31679 19.1798 0C17.1929 0.536682 15.3589 1.75005 13.8305 3.08009C8.28464 7.93356 6.10123 16.4971 8.72132 23.8473C8.80866 24.0807 8.89599 24.314 8.89599 24.6174C8.89599 25.1307 8.56848 25.5974 8.1318 25.7841C7.65145 26.0174 7.12743 25.8774 6.73442 25.5041C6.60341 25.3874 6.51608 25.2707 6.40691 25.1074C4.00516 21.7706 3.61215 16.9872 5.2497 13.1604C1.66891 16.3338 -0.274321 21.7006 0.0313559 26.7641C0.118692 27.9308 0.249697 29.0975 0.620876 30.2642C0.926553 31.6642 1.49424 33.0643 2.19293 34.301C4.46368 38.3378 8.45931 41.2312 12.7606 41.8145C17.3458 42.4445 22.2584 41.5345 25.7737 38.0811C29.7039 34.2076 31.1231 28.0008 29.0489 22.6806L28.765 22.074C28.3283 21.0006 27.7388 20.0439 27.0183 19.1572L27.1274 19.1339Z"
     fill="#2D2D2D"
     fill-opacity="0.4"
     id="path2" />
  <path
     d="M 29.0489,22.6806 28.765,22.074 26.7212,19.4253 c -0.0041,-0.0056 -0.0081,-0.0112 -0.0121,-0.0168 -0.1486,-0.206 -0.305,-0.4036 -0.4674,-0.5966 m 2.8072,3.8687 -0.4659,0.1817 c 0.002,0.005 0.004,0.0101 0.0059,0.0152 m 0.46,-0.1969 -0.4529,0.2119 -0.0071,-0.015 m 0.46,-0.1969 c 2.0742,5.3202 0.655,11.527 -3.2752,15.4005 m 2.8152,-15.2036 -0.2768,-0.5917 -0.0054,-0.0116 -0.0048,-0.0118 c -0.416,-1.0225 -0.9787,-1.937 -1.6717,-2.7899 l -0.5148,-0.6336 0.1263,-0.027 m 2.3472,4.0656 c 1.992,5.128 0.62,11.1158 -3.166,14.8473 -3.3719,3.3123 -8.1104,4.2105 -12.5942,3.5944 l -9e-4,-1e-4 C 8.699,40.7591 4.83154,37.9719 2.62872,34.0558 l -4.6e-4,-8e-4 C 1.95061,32.8556 1.40295,31.5022 1.10937,30.1575 L 1.1044,30.1348 1.09734,30.1126 C 0.744836,29.0046 0.616882,27.8867 0.530231,26.7304 0.279279,22.5584 1.59929,18.1908 4.09803,15.094 c -0.80792,3.5108 -0.17706,7.4106 1.89802,10.2985 0.11416,0.1704 0.2273,0.3247 0.39981,0.4796 0.5037,0.4749 1.239,0.7033 1.94363,0.3669 0.61078,-0.2665 1.0565,-0.9079 1.0565,-1.6216 0,-0.3944 -0.11441,-0.6998 -0.20021,-0.9288 L 9.19096,23.6757 C 6.63892,16.5114 8.77575,8.16864 14.1592,3.45684 15.3896,2.3862 16.8007,1.41239 18.3092,0.816228 16.7779,5.13157 17.5782,10.3838 20.6707,13.6887 c 0.7145,0.7636 1.493,1.4015 2.2517,2.0111 0.0632,0.0508 0.1262,0.1013 0.1891,0.1518 0.6961,0.5584 1.3697,1.0986 1.9984,1.7179 m 1.1318,1.2424 C 25.9415,18.455 25.621,18.1138 25.2929,17.7646 25.2321,17.6999 25.1711,17.6349 25.1099,17.5695 m 1.1318,1.2424 -1.1318,-1.2424"
     id="path4"
     inkscape:connector-curvature="0"
     style="stroke:#000000;stroke-opacity:0.2"
     sodipodi:nodetypes="ccccccccccccccccccccccccccccccccccsccccccccccccc" />
</svg>
