<svg width="42" height="42" viewBox="0 0 42 42" fill="none" xmlns="http://www.w3.org/2000/svg">
<path d="M21 0C18.2422 0 15.5115 0.543181 12.9636 1.59853C10.4158 2.65388 8.10079 4.20073 6.15076 6.15076C2.21249 10.089 0 15.4305 0 21C0 26.5695 2.21249 31.911 6.15076 35.8492C8.10079 37.7993 10.4158 39.3461 12.9636 40.4015C15.5115 41.4568 18.2422 42 21 42C26.5695 42 31.911 39.7875 35.8492 35.8492C39.7875 31.911 42 26.5695 42 21C42 18.2422 41.4568 15.5115 40.4015 12.9636C39.3461 10.4158 37.7993 8.10079 35.8492 6.15076C33.8992 4.20073 31.5842 2.65388 29.0364 1.59853C26.4885 0.543181 23.7578 0 21 0ZM34.356 31.143C31.353 27.489 24.066 23.1 21 23.1C17.934 23.1 10.647 27.489 7.644 31.143C5.502 28.35 4.2 24.822 4.2 21C4.2 11.739 11.739 4.2 21 4.2C30.261 4.2 37.8 11.739 37.8 21C37.8 24.822 36.498 28.35 34.356 31.143ZM21 8.4C16.926 8.4 13.65 11.676 13.65 15.75C13.65 19.824 16.926 23.1 21 23.1C25.074 23.1 28.35 19.824 28.35 15.75C28.35 11.676 25.074 8.4 21 8.4Z" fill="#2D2D2D" fill-opacity="0.4"/>
</svg>
