<svg width="139" height="131" viewBox="0 0 139 131" fill="none" xmlns="http://www.w3.org/2000/svg">
<path d="M108.425 59.6798C106.751 57.4964 104.786 55.6041 102.894 53.7118C98.1628 49.345 92.7043 46.2155 88.1191 41.6303C77.4932 31.0044 75.3098 13.4643 81.9328 0C75.3098 1.67395 69.1963 5.45852 64.1016 9.607C45.6155 24.7453 38.3374 51.4556 47.0711 74.3814C47.3622 75.1092 47.6533 75.837 47.6533 76.7832C47.6533 78.3843 46.5616 79.84 45.106 80.4222C43.5048 81.15 41.7581 80.7133 40.4481 79.5488C40.0114 79.1849 39.7203 78.821 39.3564 78.3116C31.3505 67.904 30.0405 52.984 35.499 41.0481C23.563 50.9462 17.0856 67.6856 18.1045 83.479C18.3956 87.118 18.8323 90.757 20.0696 94.396C21.0885 98.7628 22.9808 103.13 25.3098 106.987C32.8789 119.578 46.1977 128.603 60.5354 130.422C75.8193 132.387 92.1948 129.549 103.912 118.777C117.013 106.696 121.744 87.3363 114.829 70.7424L113.883 68.8501C112.428 65.5022 110.463 62.5182 108.061 59.7526L108.425 59.6798Z" fill="url(#paint0_linear)"/>
<path d="M34.1989 42.8489C29.6793 54.5704 31.2777 68.6238 38.9547 78.6094C39.3237 79.1256 39.6421 79.5269 40.1218 79.9278C41.5444 81.189 43.4908 81.7002 45.3024 80.8821C46.9234 80.2288 48.1533 78.6046 48.1533 76.7832C48.1533 75.7405 47.8317 74.9367 47.5442 74.2181L47.5383 74.2034C47.5378 74.2022 47.5373 74.2009 47.5369 74.1997C38.882 51.4755 46.0999 24.9952 64.4179 9.9943C69.2123 6.09036 74.8889 2.53287 81.0178 0.76552C74.8856 14.2649 77.2331 31.4514 87.7656 41.9839C90.0858 44.304 92.6224 46.2514 95.1513 48.1526C95.3635 48.3121 95.5755 48.4713 95.7874 48.6303C98.1061 50.3704 100.402 52.0937 102.547 54.0725C102.755 54.2806 102.964 54.4882 103.172 54.6959C104.678 56.1953 106.182 57.6932 107.527 59.3495L107.119 59.431L107.683 60.0804C110.056 62.8129 111.992 65.7543 113.425 69.0495L113.43 69.0618L113.436 69.0737L114.375 70.9506C121.194 87.3377 116.523 106.467 103.573 118.41C91.9995 129.049 75.7912 131.88 60.5992 129.926L60.5984 129.926C46.421 128.127 33.233 119.197 25.7383 106.729L25.7378 106.729C23.4316 102.909 21.5618 98.5906 20.5565 94.2824L20.5509 94.2584L20.543 94.2351C19.3268 90.6579 18.8936 87.0707 18.6032 83.4429C17.6419 68.5242 23.4352 52.7649 34.1989 42.8489Z" stroke="black" stroke-opacity="0.2"/>
<g filter="url(#filter0_d)">
<path d="M7.98828 107V94.25H4.23828V90.4297H17.0703V94.25H13.2383V107H7.98828ZM19.0977 94.3555H24.1602V107H19.0977V94.3555ZM21.6406 91.7539C21.1953 91.7539 20.7773 91.707 20.3867 91.6133C19.9961 91.5195 19.6562 91.3906 19.3672 91.2266C19.0859 91.0625 18.8594 90.8633 18.6875 90.6289C18.5234 90.3945 18.4414 90.1367 18.4414 89.8555C18.4414 89.543 18.5234 89.2695 18.6875 89.0352C18.8516 88.793 19.0781 88.5938 19.3672 88.4375C19.6562 88.2812 19.9961 88.1641 20.3867 88.0859C20.7773 88.0078 21.1992 87.9688 21.6523 87.9688C22.1055 87.9688 22.5273 88.0078 22.918 88.0859C23.3164 88.1641 23.6602 88.2812 23.9492 88.4375C24.2383 88.5938 24.4648 88.793 24.6289 89.0352C24.793 89.2695 24.875 89.543 24.875 89.8555C24.875 90.1367 24.7891 90.3945 24.6172 90.6289C24.4531 90.8633 24.2266 91.0625 23.9375 91.2266C23.6484 91.3906 23.3047 91.5195 22.9062 91.6133C22.5156 91.707 22.0938 91.7539 21.6406 91.7539ZM27.957 94.3555H33.0195C32.9727 94.6211 32.9258 94.9648 32.8789 95.3867C32.832 95.8008 32.8086 96.2305 32.8086 96.6758C33.0742 96.2773 33.4062 95.918 33.8047 95.5977C34.2109 95.2695 34.6562 94.9922 35.1406 94.7656C35.625 94.5312 36.1367 94.3516 36.6758 94.2266C37.2227 94.1016 37.7734 94.0391 38.3281 94.0391C38.9375 94.0391 39.5156 94.1328 40.0625 94.3203C40.6094 94.5 41.0898 94.7891 41.5039 95.1875C41.918 95.5859 42.2461 96.1055 42.4883 96.7461C42.7305 97.3789 42.8516 98.1484 42.8516 99.0547V107H37.7891V99.793C37.7891 99.3086 37.7383 98.9062 37.6367 98.5859C37.5352 98.2656 37.3945 98.0117 37.2148 97.8242C37.0352 97.6367 36.8203 97.5039 36.5703 97.4258C36.3281 97.3477 36.0625 97.3086 35.7734 97.3086C35.4609 97.3086 35.1523 97.3633 34.8477 97.4727C34.543 97.5742 34.2656 97.7148 34.0156 97.8945C33.7656 98.0742 33.5508 98.2852 33.3711 98.5273C33.1914 98.7695 33.0742 99.0273 33.0195 99.3008V107H27.957V94.3555ZM51.2422 107.34C50.4766 107.34 49.7461 107.211 49.0508 106.953C48.3633 106.695 47.7578 106.297 47.2344 105.758C46.7188 105.211 46.3047 104.52 45.9922 103.684C45.6875 102.848 45.5352 101.852 45.5352 100.695C45.5352 99.4766 45.6914 98.4453 46.0039 97.6016C46.3242 96.75 46.7422 96.0625 47.2578 95.5391C47.7734 95.0078 48.3633 94.625 49.0273 94.3906C49.6914 94.1562 50.375 94.0391 51.0781 94.0391C51.5234 94.0391 51.9688 94.0898 52.4141 94.1914C52.8594 94.293 53.2773 94.4375 53.668 94.625C54.0586 94.8047 54.4102 95.0195 54.7227 95.2695C55.0352 95.5195 55.2812 95.793 55.4609 96.0898V89H60.5234V107H55.4609V104.914C55.25 105.297 54.9922 105.641 54.6875 105.945C54.3828 106.242 54.043 106.496 53.668 106.707C53.3008 106.91 52.9102 107.066 52.4961 107.176C52.082 107.285 51.6641 107.34 51.2422 107.34ZM50.5977 100.707C50.5977 101.348 50.668 101.883 50.8086 102.312C50.9492 102.742 51.1328 103.09 51.3594 103.355C51.5938 103.613 51.8555 103.801 52.1445 103.918C52.4414 104.027 52.7422 104.082 53.0469 104.082C53.3516 104.082 53.6484 104.027 53.9375 103.918C54.2266 103.801 54.4844 103.613 54.7109 103.355C54.9375 103.09 55.1172 102.742 55.25 102.312C55.3906 101.875 55.4609 101.336 55.4609 100.695C55.4609 100.062 55.3906 99.5312 55.25 99.1016C55.1172 98.6641 54.9375 98.3125 54.7109 98.0469C54.4844 97.7812 54.2266 97.5938 53.9375 97.4844C53.6562 97.3672 53.3633 97.3086 53.0586 97.3086C52.7539 97.3086 52.4531 97.3672 52.1562 97.4844C51.8672 97.5938 51.6055 97.7812 51.3711 98.0469C51.1367 98.3125 50.9492 98.6641 50.8086 99.1016C50.668 99.5312 50.5977 100.066 50.5977 100.707ZM75.9102 106.496C75.1758 106.738 74.3828 106.938 73.5312 107.094C72.6797 107.258 71.793 107.34 70.8711 107.34C69.8633 107.34 68.9023 107.207 67.9883 106.941C67.0742 106.676 66.2695 106.262 65.5742 105.699C64.8789 105.137 64.3242 104.426 63.9102 103.566C63.5039 102.699 63.3008 101.668 63.3008 100.473C63.3008 99.793 63.4062 99.1641 63.6172 98.5859C63.8281 98 64.1133 97.4688 64.4727 96.9922C64.8398 96.5156 65.2656 96.0938 65.75 95.7266C66.2422 95.3594 66.7656 95.0508 67.3203 94.8008C67.8828 94.5508 68.4609 94.3633 69.0547 94.2383C69.6484 94.1055 70.2305 94.0391 70.8008 94.0391C71.6992 94.0391 72.4922 94.1406 73.1797 94.3438C73.8672 94.5391 74.4375 94.8047 74.8906 95.1406C75.3516 95.4766 75.6992 95.8672 75.9336 96.3125C76.168 96.7578 76.2852 97.2305 76.2852 97.7305C76.2852 98.3398 76.1797 98.8594 75.9688 99.2891C75.7656 99.7188 75.4883 100.082 75.1367 100.379C74.793 100.668 74.3906 100.898 73.9297 101.07C73.4766 101.234 72.9961 101.363 72.4883 101.457C71.9805 101.543 71.4609 101.598 70.9297 101.621C70.4062 101.645 69.9062 101.656 69.4297 101.656C69.2656 101.656 69.1055 101.656 68.9492 101.656C68.8008 101.648 68.6523 101.645 68.5039 101.645C68.5664 102.09 68.6875 102.465 68.8672 102.77C69.0547 103.074 69.2852 103.324 69.5586 103.52C69.8398 103.707 70.1602 103.844 70.5195 103.93C70.8867 104.008 71.2773 104.047 71.6914 104.047C72.0039 104.047 72.3359 104.023 72.6875 103.977C73.0469 103.93 73.4062 103.867 73.7656 103.789C74.1328 103.703 74.4961 103.609 74.8555 103.508C75.2227 103.398 75.5742 103.285 75.9102 103.168V106.496ZM68.3984 99.8398C68.5859 99.832 68.8242 99.8203 69.1133 99.8047C69.4102 99.7891 69.7227 99.7617 70.0508 99.7227C70.3789 99.6836 70.707 99.6289 71.0352 99.5586C71.3633 99.4883 71.6602 99.3984 71.9258 99.2891C72.1914 99.1797 72.4062 99.043 72.5703 98.8789C72.7344 98.7148 72.8164 98.5156 72.8164 98.2812C72.8164 97.8828 72.6562 97.5664 72.3359 97.332C72.0234 97.0898 71.5859 96.9688 71.0234 96.9688C70.7656 96.9688 70.4883 97.0078 70.1914 97.0859C69.8945 97.1562 69.6172 97.2969 69.3594 97.5078C69.1016 97.7188 68.8828 98.0117 68.7031 98.3867C68.5234 98.7617 68.4219 99.2461 68.3984 99.8398ZM79.4023 94.3555H84.2188C84.2031 94.5586 84.1914 94.7852 84.1836 95.0352C84.1758 95.2773 84.1719 95.5352 84.1719 95.8086C84.1719 96.0742 84.1719 96.3438 84.1719 96.6172C84.1719 96.8906 84.1719 97.1523 84.1719 97.4023C84.3281 97.0195 84.5312 96.6289 84.7812 96.2305C85.0312 95.8242 85.3242 95.4609 85.6602 95.1406C86.0039 94.8203 86.3906 94.5586 86.8203 94.3555C87.2578 94.1445 87.7461 94.0391 88.2852 94.0391C88.3867 94.0391 88.4961 94.0469 88.6133 94.0625C88.7383 94.0703 88.8594 94.0859 88.9766 94.1094C89.0938 94.1328 89.2031 94.1641 89.3047 94.2031C89.4141 94.2344 89.5039 94.2734 89.5742 94.3203L89.1641 99.1484C88.8125 99.0156 88.4414 98.918 88.0508 98.8555C87.6602 98.7852 87.3203 98.75 87.0312 98.75C86.6328 98.75 86.2812 98.8008 85.9766 98.9023C85.6797 98.9961 85.4258 99.1211 85.2148 99.2773C85.0039 99.4336 84.8359 99.6055 84.7109 99.793C84.5938 99.9805 84.5117 100.164 84.4648 100.344V107H79.4023V94.3555Z" fill="#2D2D2D"/>
</g>
<g filter="url(#filter1_d)">
<path d="M97.2539 90.4297H102.504V107H97.2539V90.4297ZM108.375 107V94.25H104.625V90.4297H117.457V94.25H113.625V107H108.375ZM119.578 90.4297H125.156C125.641 90.4297 126.172 90.4492 126.75 90.4883C127.336 90.5195 127.922 90.5898 128.508 90.6992C129.094 90.8008 129.66 90.9492 130.207 91.1445C130.754 91.332 131.238 91.582 131.66 91.8945C132.09 92.1992 132.43 92.5781 132.68 93.0312C132.938 93.4766 133.066 94.0078 133.066 94.625C133.066 94.9922 133.023 95.3594 132.938 95.7266C132.852 96.0859 132.695 96.418 132.469 96.7227C132.25 97.0273 131.945 97.293 131.555 97.5195C131.172 97.7461 130.68 97.9062 130.078 98C130.734 98.0391 131.316 98.1914 131.824 98.457C132.34 98.7148 132.773 99.0391 133.125 99.4297C133.477 99.8203 133.742 100.254 133.922 100.73C134.109 101.199 134.203 101.664 134.203 102.125C134.203 102.742 134.078 103.344 133.828 103.93C133.578 104.508 133.156 105.027 132.562 105.488C131.977 105.941 131.199 106.309 130.23 106.59C129.262 106.863 128.059 107 126.621 107H119.578V90.4297ZM124.828 104H126.949C127.621 104 128.121 103.828 128.449 103.484C128.785 103.133 128.953 102.68 128.953 102.125C128.953 101.797 128.895 101.516 128.777 101.281C128.668 101.047 128.461 100.855 128.156 100.707C127.852 100.551 127.43 100.438 126.891 100.367C126.359 100.289 125.672 100.25 124.828 100.25V104ZM126.469 97.25C126.836 97.25 127.172 97.1992 127.477 97.0977C127.781 96.9883 128.043 96.8477 128.262 96.6758C128.48 96.5039 128.648 96.3047 128.766 96.0781C128.891 95.8516 128.953 95.6172 128.953 95.375C128.953 95 128.879 94.6914 128.73 94.4492C128.582 94.207 128.344 94.0156 128.016 93.875C127.688 93.7344 127.262 93.6367 126.738 93.582C126.215 93.5273 125.578 93.5 124.828 93.5V97.25H126.469Z" fill="#0371D7"/>
</g>
<defs>
<filter id="filter0_d" x="0.238281" y="87.9688" width="93.3359" height="27.3711" filterUnits="userSpaceOnUse" color-interpolation-filters="sRGB">
<feFlood flood-opacity="0" result="BackgroundImageFix"/>
<feColorMatrix in="SourceAlpha" type="matrix" values="0 0 0 0 0 0 0 0 0 0 0 0 0 0 0 0 0 0 127 0"/>
<feOffset dy="4"/>
<feGaussianBlur stdDeviation="2"/>
<feColorMatrix type="matrix" values="0 0 0 0 0 0 0 0 0 0 0 0 0 0 0 0 0 0 0.25 0"/>
<feBlend mode="normal" in2="BackgroundImageFix" result="effect1_dropShadow"/>
<feBlend mode="normal" in="SourceGraphic" in2="effect1_dropShadow" result="shape"/>
</filter>
<filter id="filter1_d" x="93.2539" y="90.4297" width="44.9492" height="24.5703" filterUnits="userSpaceOnUse" color-interpolation-filters="sRGB">
<feFlood flood-opacity="0" result="BackgroundImageFix"/>
<feColorMatrix in="SourceAlpha" type="matrix" values="0 0 0 0 0 0 0 0 0 0 0 0 0 0 0 0 0 0 127 0"/>
<feOffset dy="4"/>
<feGaussianBlur stdDeviation="2"/>
<feColorMatrix type="matrix" values="0 0 0 0 0 0 0 0 0 0 0 0 0 0 0 0 0 0 0.25 0"/>
<feBlend mode="normal" in2="BackgroundImageFix" result="effect1_dropShadow"/>
<feBlend mode="normal" in="SourceGraphic" in2="effect1_dropShadow" result="shape"/>
</filter>
<linearGradient id="paint0_linear" x1="72.5092" y1="2.42224" x2="72.5092" y2="133.423" gradientUnits="userSpaceOnUse">
<stop stop-color="#FF0054"/>
<stop offset="1" stop-color="#F9598E"/>
</linearGradient>
</defs>
</svg>
