<svg width="21" height="18" viewBox="0 0 21 18" fill="none" xmlns="http://www.w3.org/2000/svg">
<path d="M7.97778 11.1C7.97778 11.2656 8.12849 11.4 8.31416 11.4H9.65976C9.84544 11.4 9.99614 11.2656 9.99614 11.1V9.29999C9.99614 9.1344 9.84544 9 9.65976 9H8.3142C8.12853 9 7.97782 9.1344 7.97782 9.29999V11.1H7.97778ZM8.65058 9.60001H9.32338V10.8H8.65058V9.60001Z" fill="white"/>
<path d="M8.31416 7.79988H9.65972C9.8454 7.79988 9.99611 7.66548 9.99611 7.49989V5.69989C9.99611 5.5343 9.8454 5.3999 9.65972 5.3999H8.31416C8.12849 5.3999 7.97778 5.5343 7.97778 5.69989V7.49989C7.97774 7.66548 8.12845 7.79988 8.31416 7.79988ZM8.65054 5.99988H9.32334V7.19987H8.65054V5.99988Z" fill="white"/>
<path d="M5.79629 5.6571L10.6689 3.0498L15.5416 5.6571C15.5957 5.68621 15.6556 5.69999 15.7145 5.69999C15.8288 5.69999 15.9402 5.6481 16.0031 5.55448C16.099 5.41227 16.0472 5.22809 15.8881 5.14287L11.0053 2.5302V0.600012H12.6873V1.20002H11.6781C11.4924 1.20002 11.3417 1.33443 11.3417 1.50001C11.3417 1.6656 11.4924 1.8 11.6781 1.8H13.0237C13.2093 1.8 13.3601 1.6656 13.3601 1.50001V0.299988C13.3601 0.134402 13.2093 0 13.0237 0H10.6689C10.4833 0 10.3326 0.134402 10.3326 0.299988V2.5302L5.44982 5.1429C5.29071 5.22809 5.23891 5.4123 5.33478 5.55451C5.42995 5.6964 5.63714 5.7426 5.79629 5.6571Z" fill="white"/>
<path d="M4.27744 11.4C4.46311 11.4 4.61382 11.2656 4.61382 11.1V9.29999C4.61382 9.1344 4.46311 9 4.27744 9H2.93184C2.74617 9 2.59546 9.1344 2.59546 9.29999V9.89997C2.59546 10.0656 2.74617 10.2 2.93184 10.2C3.11751 10.2 3.26822 10.0656 3.26822 9.89997V9.59998H3.94102V11.1C3.94102 11.2656 4.09173 11.4 4.27744 11.4Z" fill="white"/>
<path d="M6.63223 15.2998V6.59979C6.63223 6.43421 6.48153 6.2998 6.29585 6.2998C6.11018 6.2998 5.95947 6.43421 5.95947 6.59979V15.2998C5.95947 15.4654 6.11018 15.5998 6.29585 15.5998C6.48153 15.5998 6.63223 15.4654 6.63223 15.2998Z" fill="white"/>
<path d="M4.95015 16.8H16.3875C16.5732 16.8 16.7239 16.6656 16.7239 16.5001C16.7239 16.3345 16.5732 16.2001 16.3875 16.2001H13.36V13.2001H13.6964C13.882 13.2001 14.0327 13.0657 14.0327 12.9001C14.0327 12.7345 13.882 12.6001 13.6964 12.6001H7.64131C7.45564 12.6001 7.30493 12.7345 7.30493 12.9001C7.30493 13.0657 7.45564 13.2001 7.64131 13.2001H7.97769V16.2H4.95015C4.76448 16.2 4.61377 16.3344 4.61377 16.5C4.61377 16.6656 4.76448 16.8 4.95015 16.8ZM11.0052 15C11.1909 15 11.3416 14.8656 11.3416 14.7001C11.3416 14.5345 11.1909 14.4001 11.0052 14.4001V13.2001H12.6872V16.2H11.0052V15ZM8.65049 13.2H10.3325V14.4C10.1468 14.4 9.99609 14.5344 9.99609 14.7C9.99609 14.8656 10.1468 15 10.3325 15V16.2H8.65049V13.2Z" fill="white"/>
<path d="M18.4061 12.8999H17.0605C16.8748 12.8999 16.7241 13.0343 16.7241 13.1999V14.9999C16.7241 15.1655 16.8748 15.2999 17.0605 15.2999H18.4061C18.5917 15.2999 18.7424 15.1655 18.7424 14.9999V13.1999C18.7424 13.0343 18.5917 12.8999 18.4061 12.8999ZM18.0696 14.6999H17.3968V13.4999H18.0696V14.6999Z" fill="white"/>
<path d="M18.4061 9.2998H17.0605C16.8748 9.2998 16.7241 9.43421 16.7241 9.59979V11.3998C16.7241 11.5654 16.8748 11.6998 17.0605 11.6998H18.4061C18.5917 11.6998 18.7424 11.5654 18.7424 11.3998V9.59979C18.7424 9.43421 18.5917 9.2998 18.4061 9.2998ZM18.0696 11.0998H17.3968V9.89982H18.0696V11.0998Z" fill="white"/>
<path d="M17.7332 17.3999H3.60469C3.41902 17.3999 3.26831 17.5343 3.26831 17.6999C3.26831 17.8655 3.41902 17.9999 3.60469 17.9999H17.7332C17.9189 17.9999 18.0696 17.8655 18.0696 17.6999C18.0696 17.5343 17.9189 17.3999 17.7332 17.3999Z" fill="white"/>
<path d="M20.4244 6.6001C20.2387 6.6001 20.088 6.7345 20.088 6.90009V7.20007H16.3876C16.202 7.20007 16.0513 7.33448 16.0513 7.50006C16.0513 7.66565 16.202 7.80005 16.3876 7.80005H20.088V17.7001C20.088 17.8656 20.2387 18 20.4244 18C20.61 18 20.7608 17.8656 20.7608 17.7001V6.90005C20.7608 6.7345 20.61 6.6001 20.4244 6.6001Z" fill="white"/>
<path d="M11.3418 11.1C11.3418 11.2656 11.4925 11.4 11.6782 11.4H13.0237C13.2094 11.4 13.3601 11.2656 13.3601 11.1V9.29999C13.3601 9.1344 13.2094 9 13.0237 9H11.6782C11.4925 9 11.3418 9.1344 11.3418 9.29999V11.1ZM12.0146 9.60001H12.6874V10.8H12.0146V9.60001Z" fill="white"/>
<path d="M3.94107 14.6998C3.94107 14.6608 3.92191 10.7998 2.25909 10.7998C0.596307 10.7998 0.577148 14.6608 0.577148 14.6998C0.577148 15.4243 1.15609 16.03 1.92271 16.1695V17.6998C1.92271 17.8654 2.07342 17.9998 2.25909 17.9998C2.44476 17.9998 2.59547 17.8654 2.59547 17.6998V16.1695C3.36213 16.03 3.94107 15.4243 3.94107 14.6998ZM2.25913 15.5998C1.70274 15.5998 1.24995 15.196 1.24995 14.6998C1.24995 13.2052 1.70006 11.3998 2.25913 11.3998C2.8182 11.3998 3.26831 13.2052 3.26831 14.6998C3.26831 15.196 2.81552 15.5998 2.25913 15.5998Z" fill="white"/>
<path d="M15.3786 15.3V6.29999C15.3786 6.1344 15.2279 6 15.0422 6C14.8565 6 14.7058 6.1344 14.7058 6.29999V15.3C14.7058 15.4656 14.8565 15.6 15.0422 15.6C15.2279 15.6 15.3786 15.4656 15.3786 15.3Z" fill="white"/>
<path d="M11.6782 7.79988H13.0237C13.2094 7.79988 13.3601 7.66548 13.3601 7.49989V5.69989C13.3601 5.5343 13.2094 5.3999 13.0237 5.3999H11.6782C11.4925 5.3999 11.3418 5.5343 11.3418 5.69989V7.49989C11.3418 7.66548 11.4925 7.79988 11.6782 7.79988ZM12.0146 5.99988H12.6874V7.19987H12.0146V5.99988Z" fill="white"/>
<path d="M0.913529 10.5C1.0992 10.5 1.24991 10.3656 1.24991 10.2001V7.80005H4.95025C5.13592 7.80005 5.28663 7.66565 5.28663 7.50006C5.28663 7.33448 5.13592 7.20007 4.95025 7.20007H1.24995V6.90009C1.24995 6.7345 1.09924 6.6001 0.913568 6.6001C0.727895 6.6001 0.577148 6.73443 0.577148 6.90005V10.2001C0.577148 10.3656 0.727855 10.5 0.913529 10.5Z" fill="white"/>
</svg>
